#!OML:ASF H:\Dans Jumps\Project 1\Capture day 1\Session 1\subject.ASF
:FULLY-SPECIFIED
:DEGREES
454
root 0.273622 17.8151 -2.05232 7.63488 0.117198 -1.5031
lowerback -1.42497 -0.952633 -0.4971
upperback 2.7443 -1.31718 1.89247
thorax 3.67845 -0.699847 2.16724
lowerneck -11.3624 0.604577 -1.6968
upperneck 38.7977 1.00964 0.88048
head 15.539 0.284635 0.84023
rclavicle -8.15017e-015 1.90833e-014
rhumerus -27.3539 -19.9998 -77.1005
rradius 21.9467
rwrist 35.3173
rhand -20.3679 -26.1284
rfingers 7.12502
rthumb 5.98463 -56.0238
lclavicle -8.15017e-015 1.90833e-014
lhumerus -23.2049 -2.11839 87.9227
lradius 15.3249
lwrist 1.17441
lhand -25.7433 -4.94069
lfingers 7.12502
lthumb 0.793714 25.0376
rfemur -15.5433 -2.86583 19.8858
rtibia 20.5968
rfoot -11.0503 -2.59042
rtoes 16.6736
lfemur -14.1604 6.17657 -17.4498
ltibia 17.0472
lfoot -8.52669 1.7134
ltoes 4.61549
455
root 0.271123 17.8165 -2.04585 7.63491 0.163483 -1.51574
lowerback -1.47558 -0.953617 -0.507179
upperback 2.76409 -1.31895 1.89915
thorax 3.72812 -0.701535 2.17882
lowerneck -11.3431 0.598128 -1.70481
upperneck 38.8818 0.99121 0.909682
head 15.5771 0.279009 0.852118
rclavicle -1.20762e-014 9.14409e-015
rhumerus -27.3645 -20.0208 -77.1759
rradius 21.9158
rwrist 35.3743
rhand -20.285 -26.1421
rfingers 7.12502
rthumb 6.06463 -56.0353
lclavicle -1.20762e-014 9.14409e-015
lhumerus -23.2327 -1.99642 87.9919
lradius 15.1788
lwrist 0.763011
lhand -25.7657 -5.09527
lfingers 7.12502
lthumb 0.772 24.8831
rfemur -15.4645 -2.86509 19.9055
rtibia 20.5061
rfoot -11.0401 -2.6222
rtoes 16.6974
lfemur -14.1176 6.18061 -17.4249
ltibia 16.9943
lfoot -8.52612 1.66488
ltoes 4.64209
456
root 0.268463 17.8178 -2.03985 7.63221 0.210933 -1.53204
lowerback -1.51896 -0.954632 -0.515048
upperback 2.78295 -1.32086 1.90821
thorax 3.77276 -0.703238 2.19173
lowerneck -11.3289 0.591643 -1.71096
upperneck 38.9639 0.973796 0.934992
head 15.6155 0.273586 0.862221
rclavicle -2.28602e-015 1.64991e-014
rhumerus -27.3685 -20.0368 -77.2514
rradius 21.8806
rwrist 35.4379
rhand -20.2257 -26.1507
rfingers 7.12502
rthumb 6.12196 -56.0422
lclavicle -2.28602e-015 1.64991e-014
lhumerus -23.2668 -1.91394 88.0758
lradius 15.0726
lwrist 0.412296
lhand -25.7743 -5.20893
lfingers 7.12502
lthumb 0.763692 24.7695
rfemur -15.388 -2.85859 19.9299
rtibia 20.4216
rfoot -11.03 -2.66219
rtoes 16.7187
lfemur -14.0793 6.18624 -17.3947
ltibia 16.9507
lfoot -8.5267 1.61358
ltoes 4.66979
457
root 0.265739 17.8188 -2.03431 7.62646 0.260281 -1.5521
lowerback -1.5554 -0.957263 -0.519593
upperback 2.80192 -1.32509 1.92001
thorax 3.81369 -0.706037 2.20559
lowerneck -11.319 0.585148 -1.71989
upperneck 39.0405 0.957368 0.95978
head 15.6523 0.268142 0.872751
rclavicle -1.95803e-014 2.24627e-014
rhumerus -27.3636 -20.0453 -77.3287
rradius 21.8424
rwrist 35.5041
rhand -20.1855 -26.1467
rfingers 7.12502
rthumb 6.16077 -56.0371
lclavicle -1.95803e-014 2.24627e-014
lhumerus -23.3066 -1.8773 88.1772
lradius 15.0036
lwrist 0.148447
lhand -25.7496 -5.26861
lfingers 7.12502
lthumb 0.78759 24.7097
rfemur -15.3133 -2.85632 19.9594
rtibia 20.3438
rfoot -11.0221 -2.7014
rtoes 16.7433
lfemur -14.0443 6.18907 -17.3595
ltibia 16.9155
lfoot -8.52804 1.56385
ltoes 4.69651
458
root 0.262985 17.8196 -2.02919 7.6187 0.310199 -1.57134
lowerback -1.58645 -0.960755 -0.524635
upperback 2.82077 -1.33047 1.93297
thorax 3.85155 -0.709428 2.22096
lowerneck -11.3113 0.578397 -1.73262
upperneck 39.11 0.941338 0.985293
head 15.686 0.262476 0.884294
rclavicle 7.95139e-015 -4.17448e-015
rhumerus -27.3552 -20.0381 -77.4095
rradius 21.8112
rwrist 35.558
rhand -20.1663 -26.1211
rfingers 7.12502
rthumb 6.17923 -56.011
lclavicle 7.95139e-015 -4.17448e-015
lhumerus -23.3525 -1.90111 88.3006
lradius 14.9721
lwrist -0.00572498
lhand -25.707 -5.28665
lfingers 7.12502
lthumb 0.828741 24.6915
rfemur -15.2417 -2.86349 19.9889
rtibia 20.2723
rfoot -11.0172 -2.73395
rtoes 16.7702
lfemur -14.0132 6.18925 -17.3251
ltibia 16.8884
lfoot -8.52929 1.51757
ltoes 4.71279
459
root 0.260339 17.8201 -2.02444 7.60899 0.361119 -1.59002
lowerback -1.61374 -0.965711 -0.527891
upperback 2.83989 -1.33791 1.94731
thorax 3.88766 -0.71381 2.23672
lowerneck -11.2987 0.57232 -1.7497
upperneck 39.1677 0.92847 1.00803
head 15.7125 0.257248 0.895764
rclavicle 8.39865e-015 8.94531e-015
rhumerus -27.3448 -20.0053 -77.4959
rradius 21.7939
rwrist 35.5922
rhand -20.1631 -26.0818
rfingers 7.12502
rthumb 6.18235 -55.9716
lclavicle 8.39865e-015 8.94531e-015
lhumerus -23.4004 -1.99039 88.448
lradius 14.9714
lwrist -0.0395553
lhand -25.6203 -5.23149
lfingers 7.12502
lthumb 0.912458 24.7463
rfemur -15.1727 -2.88429 20.0182
rtibia 20.2073
rfoot -11.0167 -2.75548
rtoes 16.8021
lfemur -13.9838 6.18383 -17.2917
ltibia 16.8658
lfoot -8.52904 1.4782
ltoes 4.7155
460
root 0.257784 17.8206 -2.02022 7.59811 0.414705 -1.60614
lowerback -1.63657 -0.971796 -0.530484
upperback 2.85855 -1.34685 1.9617
thorax 3.92082 -0.718908 2.25215
lowerneck -11.2781 0.567151 -1.77156
upperneck 39.2127 0.918409 1.03011
head 15.7306 0.252556 0.908063
rclavicle 1.66979e-014 -2.5842e-015
rhumerus -27.3382 -19.9365 -77.5915
rradius 21.8014
rwrist 35.5874
rhand -20.1587 -26.0445
rfingers 7.12502
rthumb 6.1866 -55.9341
lclavicle 1.66979e-014 -2.5842e-015
lhumerus -23.4478 -2.14076 88.6163
lradius 14.9991
lwrist 0.0329831
lhand -25.5456 -5.19625
lfingers 7.12502
lthumb 0.984639 24.7812
rfemur -15.1066 -2.91775 20.0453
rtibia 20.1482
rfoot -11.0204 -2.76804
rtoes 16.8313
lfemur -13.9564 6.17228 -17.2613
ltibia 16.846
lfoot -8.52821 1.44212
ltoes 4.71894
